<mxfile host="app.diagrams.net" agent="Mozilla/5.0 (Macintosh; Intel Mac OS X 10_15_7) AppleWebKit/537.36 (KHTML, like Gecko) Chrome/131.0.0.0 Safari/537.36" version="25.0.1">
  <diagram name="第 1 页" id="TUxiEKDi1l7JP5gkijs8">
    <mxGraphModel dx="1026" dy="650" grid="1" gridSize="10" guides="1" tooltips="1" connect="1" arrows="1" fold="1" page="1" pageScale="1" pageWidth="4681" pageHeight="3300" math="0" shadow="0">
      <root>
        <mxCell id="0" />
        <mxCell id="1" parent="0" />
        <mxCell id="M1qIDA9Iyfj7_mtNXv1t-4" value="" style="edgeStyle=orthogonalEdgeStyle;rounded=0;orthogonalLoop=1;jettySize=auto;html=1;" edge="1" parent="1" source="M1qIDA9Iyfj7_mtNXv1t-1" target="M1qIDA9Iyfj7_mtNXv1t-3">
          <mxGeometry relative="1" as="geometry" />
        </mxCell>
        <mxCell id="M1qIDA9Iyfj7_mtNXv1t-1" value="运输方式" style="rounded=1;whiteSpace=wrap;html=1;" vertex="1" parent="1">
          <mxGeometry x="240" y="160" width="120" height="60" as="geometry" />
        </mxCell>
        <mxCell id="M1qIDA9Iyfj7_mtNXv1t-6" value="" style="edgeStyle=orthogonalEdgeStyle;rounded=0;orthogonalLoop=1;jettySize=auto;html=1;" edge="1" parent="1" source="M1qIDA9Iyfj7_mtNXv1t-3" target="M1qIDA9Iyfj7_mtNXv1t-5">
          <mxGeometry relative="1" as="geometry" />
        </mxCell>
        <mxCell id="M1qIDA9Iyfj7_mtNXv1t-7" value="是" style="edgeLabel;html=1;align=center;verticalAlign=middle;resizable=0;points=[];" vertex="1" connectable="0" parent="M1qIDA9Iyfj7_mtNXv1t-6">
          <mxGeometry x="-0.275" y="-1" relative="1" as="geometry">
            <mxPoint as="offset" />
          </mxGeometry>
        </mxCell>
        <mxCell id="M1qIDA9Iyfj7_mtNXv1t-9" value="" style="edgeStyle=orthogonalEdgeStyle;rounded=0;orthogonalLoop=1;jettySize=auto;html=1;" edge="1" parent="1" source="M1qIDA9Iyfj7_mtNXv1t-3" target="M1qIDA9Iyfj7_mtNXv1t-8">
          <mxGeometry relative="1" as="geometry" />
        </mxCell>
        <mxCell id="M1qIDA9Iyfj7_mtNXv1t-10" value="否" style="edgeLabel;html=1;align=center;verticalAlign=middle;resizable=0;points=[];" vertex="1" connectable="0" parent="M1qIDA9Iyfj7_mtNXv1t-9">
          <mxGeometry y="3" relative="1" as="geometry">
            <mxPoint as="offset" />
          </mxGeometry>
        </mxCell>
        <mxCell id="M1qIDA9Iyfj7_mtNXv1t-3" value="快递" style="rhombus;whiteSpace=wrap;html=1;rounded=1;" vertex="1" parent="1">
          <mxGeometry x="260" y="290" width="80" height="80" as="geometry" />
        </mxCell>
        <mxCell id="M1qIDA9Iyfj7_mtNXv1t-11" style="edgeStyle=orthogonalEdgeStyle;rounded=0;orthogonalLoop=1;jettySize=auto;html=1;exitX=0.5;exitY=1;exitDx=0;exitDy=0;entryX=0.25;entryY=0;entryDx=0;entryDy=0;" edge="1" parent="1" source="M1qIDA9Iyfj7_mtNXv1t-5" target="M1qIDA9Iyfj7_mtNXv1t-22">
          <mxGeometry relative="1" as="geometry">
            <mxPoint x="600" y="470" as="targetPoint" />
          </mxGeometry>
        </mxCell>
        <mxCell id="M1qIDA9Iyfj7_mtNXv1t-28" value="是" style="edgeLabel;html=1;align=center;verticalAlign=middle;resizable=0;points=[];" vertex="1" connectable="0" parent="M1qIDA9Iyfj7_mtNXv1t-11">
          <mxGeometry x="0.0703" y="3" relative="1" as="geometry">
            <mxPoint as="offset" />
          </mxGeometry>
        </mxCell>
        <mxCell id="M1qIDA9Iyfj7_mtNXv1t-5" value="重量&amp;gt;120Kg" style="rhombus;whiteSpace=wrap;html=1;rounded=1;" vertex="1" parent="1">
          <mxGeometry x="440" y="290" width="110" height="80" as="geometry" />
        </mxCell>
        <mxCell id="M1qIDA9Iyfj7_mtNXv1t-8" value="重量&amp;gt;60Kg" style="rhombus;whiteSpace=wrap;html=1;rounded=1;" vertex="1" parent="1">
          <mxGeometry x="260" y="450" width="80" height="80" as="geometry" />
        </mxCell>
        <mxCell id="M1qIDA9Iyfj7_mtNXv1t-23" value="" style="edgeStyle=orthogonalEdgeStyle;rounded=0;orthogonalLoop=1;jettySize=auto;html=1;" edge="1" parent="1" source="M1qIDA9Iyfj7_mtNXv1t-18" target="M1qIDA9Iyfj7_mtNXv1t-22">
          <mxGeometry relative="1" as="geometry">
            <Array as="points">
              <mxPoint x="710" y="440" />
              <mxPoint x="640" y="440" />
            </Array>
          </mxGeometry>
        </mxCell>
        <mxCell id="M1qIDA9Iyfj7_mtNXv1t-25" value="" style="edgeStyle=orthogonalEdgeStyle;rounded=0;orthogonalLoop=1;jettySize=auto;html=1;" edge="1" parent="1" source="M1qIDA9Iyfj7_mtNXv1t-18" target="M1qIDA9Iyfj7_mtNXv1t-24">
          <mxGeometry relative="1" as="geometry">
            <Array as="points">
              <mxPoint x="710" y="440" />
              <mxPoint x="850" y="440" />
            </Array>
          </mxGeometry>
        </mxCell>
        <mxCell id="M1qIDA9Iyfj7_mtNXv1t-18" value="装箱逻辑" style="rounded=1;whiteSpace=wrap;html=1;" vertex="1" parent="1">
          <mxGeometry x="630" y="350" width="160" height="30" as="geometry" />
        </mxCell>
        <mxCell id="M1qIDA9Iyfj7_mtNXv1t-19" value="调整装箱&amp;gt;12kg" style="rounded=1;whiteSpace=wrap;html=1;" vertex="1" parent="1">
          <mxGeometry x="680" y="680" width="120" height="50" as="geometry" />
        </mxCell>
        <mxCell id="M1qIDA9Iyfj7_mtNXv1t-26" style="edgeStyle=orthogonalEdgeStyle;rounded=0;orthogonalLoop=1;jettySize=auto;html=1;" edge="1" parent="1" source="M1qIDA9Iyfj7_mtNXv1t-22" target="M1qIDA9Iyfj7_mtNXv1t-19">
          <mxGeometry relative="1" as="geometry" />
        </mxCell>
        <mxCell id="M1qIDA9Iyfj7_mtNXv1t-22" value="STA装箱" style="rounded=1;whiteSpace=wrap;html=1;" vertex="1" parent="1">
          <mxGeometry x="580" y="530" width="120" height="50" as="geometry" />
        </mxCell>
        <mxCell id="M1qIDA9Iyfj7_mtNXv1t-27" style="edgeStyle=orthogonalEdgeStyle;rounded=0;orthogonalLoop=1;jettySize=auto;html=1;exitX=0.5;exitY=1;exitDx=0;exitDy=0;entryX=0.5;entryY=0;entryDx=0;entryDy=0;" edge="1" parent="1" source="M1qIDA9Iyfj7_mtNXv1t-24" target="M1qIDA9Iyfj7_mtNXv1t-19">
          <mxGeometry relative="1" as="geometry">
            <Array as="points">
              <mxPoint x="830" y="630" />
              <mxPoint x="740" y="630" />
            </Array>
          </mxGeometry>
        </mxCell>
        <mxCell id="M1qIDA9Iyfj7_mtNXv1t-24" value="非STA（最大化装即可）" style="rounded=1;whiteSpace=wrap;html=1;" vertex="1" parent="1">
          <mxGeometry x="770" y="510" width="160" height="50" as="geometry" />
        </mxCell>
        <mxCell id="M1qIDA9Iyfj7_mtNXv1t-29" style="edgeStyle=orthogonalEdgeStyle;rounded=0;orthogonalLoop=1;jettySize=auto;html=1;entryX=0.8;entryY=-0.02;entryDx=0;entryDy=0;entryPerimeter=0;" edge="1" parent="1" source="M1qIDA9Iyfj7_mtNXv1t-5" target="M1qIDA9Iyfj7_mtNXv1t-24">
          <mxGeometry relative="1" as="geometry" />
        </mxCell>
        <mxCell id="M1qIDA9Iyfj7_mtNXv1t-30" value="否" style="edgeLabel;html=1;align=center;verticalAlign=middle;resizable=0;points=[];" vertex="1" connectable="0" parent="M1qIDA9Iyfj7_mtNXv1t-29">
          <mxGeometry x="-0.5974" y="1" relative="1" as="geometry">
            <mxPoint as="offset" />
          </mxGeometry>
        </mxCell>
        <mxCell id="M1qIDA9Iyfj7_mtNXv1t-31" value="需要遵守STA" style="rhombus;whiteSpace=wrap;html=1;fillColor=#fff2cc;strokeColor=#d6b656;" vertex="1" parent="1">
          <mxGeometry x="350" y="660" width="80" height="80" as="geometry" />
        </mxCell>
        <mxCell id="M1qIDA9Iyfj7_mtNXv1t-32" value="计算箱子数量" style="rounded=0;whiteSpace=wrap;html=1;" vertex="1" parent="1">
          <mxGeometry x="360" y="525" width="120" height="60" as="geometry" />
        </mxCell>
        <mxCell id="M1qIDA9Iyfj7_mtNXv1t-33" style="edgeStyle=orthogonalEdgeStyle;rounded=0;orthogonalLoop=1;jettySize=auto;html=1;entryX=0.558;entryY=-0.033;entryDx=0;entryDy=0;entryPerimeter=0;" edge="1" parent="1" source="M1qIDA9Iyfj7_mtNXv1t-8" target="M1qIDA9Iyfj7_mtNXv1t-32">
          <mxGeometry relative="1" as="geometry">
            <Array as="points">
              <mxPoint x="427" y="490" />
            </Array>
          </mxGeometry>
        </mxCell>
      </root>
    </mxGraphModel>
  </diagram>
</mxfile>
